{
    "asset" : {
        "generator" : "Khronos glTF Blender I/O v1.6.16",
        "version" : "2.0"
    },
    "scene" : 0,
    "scenes" : [
        {
            "extras" : {
                "glTF2ExportSettings" : {
                    "export_apply" : 1,
                    "export_extras" : 1,
                    "export_format" : "GLTF_EMBEDDED",
                    "use_renderable" : 0,
                    "use_selection" : 1,
                    "use_visible" : 1
                }
            },
            "name" : "Scene",
            "nodes" : [
                0,
                1,
                2,
                3,
                4
            ]
        }
    ],
    "nodes" : [
        {
            "extras" : {},
            "mesh" : 0,
            "name" : "Roundcube",
            "scale" : [
                0.2694997787475586,
                0.21427860856056213,
                0.20124615728855133
            ],
            "translation" : [
                0,
                0.14962336421012878,
                0.15666818618774414
            ]
        },
        {
            "extras" : {},
            "mesh" : 1,
            "name" : "Vert",
            "rotation" : [
                0.11026708781719208,
                0,
                0,
                0.9939020872116089
            ],
            "translation" : [
                0,
                0.7622722387313843,
                0.8786244988441467
            ]
        },
        {
            "extras" : {},
            "mesh" : 2,
            "name" : "Vert.001",
            "rotation" : [
                0.10111057013273239,
                0,
                0,
                0.9948751926422119
            ],
            "scale" : [
                1.3068031072616577,
                1.3068031072616577,
                1.3068031072616577
            ],
            "translation" : [
                0,
                0.5288246273994446,
                0.8155766725540161
            ]
        },
        {
            "extras" : {},
            "mesh" : 3,
            "name" : "Sphere.002",
            "rotation" : [
                0.7153704762458801,
                0.11832370609045029,
                -0.059316236525774,
                0.6860948801040649
            ],
            "scale" : [
                0.09237971901893616,
                0.03453458100557327,
                0.09237974882125854
            ],
            "translation" : [
                0.47477149963378906,
                0.8705041408538818,
                0.806185781955719
            ]
        },
        {
            "extras" : {},
            "mesh" : 4,
            "name" : "Sphere.003",
            "rotation" : [
                0.6853182911872864,
                0.0658148005604744,
                -0.25403791666030884,
                0.6793172955513
            ],
            "scale" : [
                0.07731390744447708,
                0.03147663176059723,
                0.06040910258889198
            ],
            "translation" : [
                0.5621750950813293,
                0.7983473539352417,
                0.7486056089401245
            ]
        }
    ],
    "materials" : [
        {
            "doubleSided" : true,
            "extras" : {},
            "name" : "white",
            "pbrMetallicRoughness" : {
                "baseColorTexture" : {
                    "index" : 0
                },
                "metallicFactor" : 0,
                "roughnessFactor" : 0.5
            }
        },
        {
            "doubleSided" : true,
            "extras" : {},
            "name" : "pink",
            "pbrMetallicRoughness" : {
                "baseColorFactor" : [
                    0.8000000715255737,
                    0.21240632236003876,
                    0.325654000043869,
                    1
                ],
                "metallicFactor" : 0,
                "roughnessFactor" : 0.5
            }
        },
        {
            "alphaCutoff" : 0.5,
            "alphaMode" : "MASK",
            "extras" : {},
            "name" : "outline",
            "pbrMetallicRoughness" : {
                "baseColorFactor" : [
                    0.3043151795864105,
                    0.10633998364210129,
                    0,
                    1
                ],
                "metallicFactor" : 0,
                "roughnessFactor" : 0.5
            }
        },
        {
            "doubleSided" : true,
            "extras" : {},
            "name" : "Material.001",
            "pbrMetallicRoughness" : {
                "baseColorFactor" : [
                    0.8000000715255737,
                    0.3307326138019562,
                    0.7078657746315002,
                    1
                ],
                "metallicFactor" : 0,
                "roughnessFactor" : 0.5
            }
        },
        {
            "extras" : {},
            "name" : "brown",
            "pbrMetallicRoughness" : {
                "baseColorFactor" : [
                    0.04373505711555481,
                    0.02732088230550289,
                    0.018500223755836487,
                    1
                ],
                "metallicFactor" : 0,
                "roughnessFactor" : 0.5
            }
        },
        {
            "doubleSided" : true,
            "extras" : {},
            "name" : "eye",
            "pbrMetallicRoughness" : {
                "baseColorFactor" : [
                    0,
                    0,
                    0,
                    1
                ],
                "metallicFactor" : 0,
                "roughnessFactor" : 0.11983472108840942
            }
        },
        {
            "doubleSided" : true,
            "extras" : {},
            "name" : "blush.001",
            "pbrMetallicRoughness" : {
                "baseColorFactor" : [
                    0.8000000715255737,
                    0.17233631014823914,
                    0.4046821594238281,
                    1
                ],
                "metallicFactor" : 0,
                "roughnessFactor" : 0.5
            }
        }
    ],
    "meshes" : [
        {
            "extras" : {
                "Roundcube" : 1,
                "change" : 0,
                "radius" : 4.59999942779541,
                "size" : [
                    2,
                    2,
                    2
                ],
                "arc_div" : 6,
                "lin_div" : 0,
                "div_type" : "CORNERS",
                "odd_axis_align" : 0,
                "no_limit" : 0
            },
            "name" : "Roundcube",
            "primitives" : [
                {
                    "attributes" : {
                        "POSITION" : 0,
                        "NORMAL" : 1,
                        "TEXCOORD_0" : 2
                    },
                    "indices" : 3,
                    "material" : 0
                },
                {
                    "attributes" : {
                        "POSITION" : 4,
                        "NORMAL" : 5,
                        "TEXCOORD_0" : 6
                    },
                    "indices" : 7,
                    "material" : 1
                },
                {
                    "attributes" : {
                        "POSITION" : 8,
                        "NORMAL" : 9,
                        "TEXCOORD_0" : 10
                    },
                    "indices" : 11,
                    "material" : 2
                }
            ]
        },
        {
            "name" : "Vert",
            "primitives" : [
                {
                    "attributes" : {
                        "POSITION" : 12,
                        "NORMAL" : 13
                    },
                    "indices" : 14,
                    "material" : 3
                }
            ]
        },
        {
            "name" : "Vert.001",
            "primitives" : [
                {
                    "attributes" : {
                        "POSITION" : 15,
                        "NORMAL" : 16,
                        "TEXCOORD_0" : 17
                    },
                    "indices" : 18,
                    "material" : 4
                }
            ]
        },
        {
            "name" : "Sphere.002",
            "primitives" : [
                {
                    "attributes" : {
                        "POSITION" : 19,
                        "NORMAL" : 20,
                        "TEXCOORD_0" : 21
                    },
                    "indices" : 22,
                    "material" : 5
                }
            ]
        },
        {
            "name" : "Sphere.003",
            "primitives" : [
                {
                    "attributes" : {
                        "POSITION" : 23,
                        "NORMAL" : 24,
                        "TEXCOORD_0" : 25
                    },
                    "indices" : 22,
                    "material" : 6
                }
            ]
        }
    ],
    "textures" : [
        {
            "sampler" : 0,
            "source" : 0
        }
    ],
    "images" : [
        {
            "bufferView" : 4,
            "mimeType" : "image/png",
            "name" : "machiFur"
        }
    ],
    "accessors" : [
        {
            "bufferView" : 0,
            "componentType" : 5126,
            "count" : 3936,
            "max" : [
                4.446841239929199,
                9.247645378112793,
                3.5951004028320312
            ],
            "min" : [
                -4.446841239929199,
                -1.5075721740722656,
                -18.161582946777344
            ],
            "type" : "VEC3"
        },
        {
            "bufferView" : 1,
            "componentType" : 5126,
            "count" : 3936,
            "type" : "VEC3"
        },
        {
            "bufferView" : 2,
            "componentType" : 5126,
            "count" : 3936,
            "type" : "VEC2"
        },
        {
            "bufferView" : 3,
            "componentType" : 5123,
            "count" : 15060,
            "type" : "SCALAR"
        },
        {
            "bufferView" : 5,
            "componentType" : 5126,
            "count" : 55,
            "max" : [
                3.616791009902954,
                8.738795280456543,
                0.005012361332774162
            ],
            "min" : [
                -3.616791009902954,
                6.951684951782227,
                -0.26075440645217896
            ],
            "type" : "VEC3"
        },
        {
            "bufferView" : 6,
            "componentType" : 5126,
            "count" : 55,
            "type" : "VEC3"
        },
        {
            "bufferView" : 7,
            "componentType" : 5126,
            "count" : 55,
            "type" : "VEC2"
        },
        {
            "bufferView" : 8,
            "componentType" : 5123,
            "count" : 192,
            "type" : "SCALAR"
        },
        {
            "bufferView" : 9,
            "componentType" : 5126,
            "count" : 4012,
            "max" : [
                4.577418804168701,
                9.3787260055542,
                3.72550630569458
            ],
            "min" : [
                -4.577418804168701,
                -1.6533267498016357,
                -18.295881271362305
            ],
            "type" : "VEC3"
        },
        {
            "bufferView" : 10,
            "componentType" : 5126,
            "count" : 4012,
            "type" : "VEC3"
        },
        {
            "bufferView" : 11,
            "componentType" : 5126,
            "count" : 4012,
            "type" : "VEC2"
        },
        {
            "bufferView" : 12,
            "componentType" : 5123,
            "count" : 15348,
            "type" : "SCALAR"
        },
        {
            "bufferView" : 13,
            "componentType" : 5126,
            "count" : 718,
            "max" : [
                0.10504036396741867,
                -5.08510067387391e-10,
                0.01687282882630825
            ],
            "min" : [
                -0.10504036396741867,
                -0.12045063823461533,
                -0.01687282882630825
            ],
            "type" : "VEC3"
        },
        {
            "bufferView" : 14,
            "componentType" : 5126,
            "count" : 718,
            "type" : "VEC3"
        },
        {
            "bufferView" : 15,
            "componentType" : 5123,
            "count" : 4296,
            "type" : "SCALAR"
        },
        {
            "bufferView" : 16,
            "componentType" : 5126,
            "count" : 33,
            "max" : [
                0.05690526217222214,
                0.018845973536372185,
                0.020000003278255463
            ],
            "min" : [
                -0.06367582827806473,
                -0.08294069766998291,
                -0.020000003278255463
            ],
            "type" : "VEC3"
        },
        {
            "bufferView" : 17,
            "componentType" : 5126,
            "count" : 33,
            "type" : "VEC3"
        },
        {
            "bufferView" : 18,
            "componentType" : 5126,
            "count" : 33,
            "type" : "VEC2"
        },
        {
            "bufferView" : 19,
            "componentType" : 5123,
            "count" : 120,
            "type" : "SCALAR"
        },
        {
            "bufferView" : 20,
            "componentType" : 5126,
            "count" : 304,
            "max" : [
                1,
                1,
                1.0000001192092896
            ],
            "min" : [
                -10.799571990966797,
                -8.18681812286377,
                -1.784550666809082
            ],
            "type" : "VEC3"
        },
        {
            "bufferView" : 21,
            "componentType" : 5126,
            "count" : 304,
            "type" : "VEC3"
        },
        {
            "bufferView" : 22,
            "componentType" : 5126,
            "count" : 304,
            "type" : "VEC2"
        },
        {
            "bufferView" : 23,
            "componentType" : 5123,
            "count" : 1524,
            "type" : "SCALAR"
        },
        {
            "bufferView" : 24,
            "componentType" : 5126,
            "count" : 304,
            "max" : [
                1,
                1,
                5.838439464569092
            ],
            "min" : [
                -13.202566146850586,
                -17.42007064819336,
                -1
            ],
            "type" : "VEC3"
        },
        {
            "bufferView" : 25,
            "componentType" : 5126,
            "count" : 304,
            "type" : "VEC3"
        },
        {
            "bufferView" : 26,
            "componentType" : 5126,
            "count" : 304,
            "type" : "VEC2"
        }
    ],
    "bufferViews" : [
        {
            "buffer" : 0,
            "byteLength" : 47232,
            "byteOffset" : 0
        },
        {
            "buffer" : 0,
            "byteLength" : 47232,
            "byteOffset" : 47232
        },
        {
            "buffer" : 0,
            "byteLength" : 31488,
            "byteOffset" : 94464
        },
        {
            "buffer" : 0,
            "byteLength" : 30120,
            "byteOffset" : 125952
        },
        {
            "buffer" : 0,
            "byteLength" : 130097,
            "byteOffset" : 156072
        },
        {
            "buffer" : 0,
            "byteLength" : 660,
            "byteOffset" : 286172
        },
        {
            "buffer" : 0,
            "byteLength" : 660,
            "byteOffset" : 286832
        },
        {
            "buffer" : 0,
            "byteLength" : 440,
            "byteOffset" : 287492
        },
        {
            "buffer" : 0,
            "byteLength" : 384,
            "byteOffset" : 287932
        },
        {
            "buffer" : 0,
            "byteLength" : 48144,
            "byteOffset" : 288316
        },
        {
            "buffer" : 0,
            "byteLength" : 48144,
            "byteOffset" : 336460
        },
        {
            "buffer" : 0,
            "byteLength" : 32096,
            "byteOffset" : 384604
        },
        {
            "buffer" : 0,
            "byteLength" : 30696,
            "byteOffset" : 416700
        },
        {
            "buffer" : 0,
            "byteLength" : 8616,
            "byteOffset" : 447396
        },
        {
            "buffer" : 0,
            "byteLength" : 8616,
            "byteOffset" : 456012
        },
        {
            "buffer" : 0,
            "byteLength" : 8592,
            "byteOffset" : 464628
        },
        {
            "buffer" : 0,
            "byteLength" : 396,
            "byteOffset" : 473220
        },
        {
            "buffer" : 0,
            "byteLength" : 396,
            "byteOffset" : 473616
        },
        {
            "buffer" : 0,
            "byteLength" : 264,
            "byteOffset" : 474012
        },
        {
            "buffer" : 0,
            "byteLength" : 240,
            "byteOffset" : 474276
        },
        {
            "buffer" : 0,
            "byteLength" : 3648,
            "byteOffset" : 474516
        },
        {
            "buffer" : 0,
            "byteLength" : 3648,
            "byteOffset" : 478164
        },
        {
            "buffer" : 0,
            "byteLength" : 2432,
            "byteOffset" : 481812
        },
        {
            "buffer" : 0,
            "byteLength" : 3048,
            "byteOffset" : 484244
        },
        {
            "buffer" : 0,
            "byteLength" : 3648,
            "byteOffset" : 487292
        },
        {
            "buffer" : 0,
            "byteLength" : 3648,
            "byteOffset" : 490940
        },
        {
            "buffer" : 0,
            "byteLength" : 2432,
            "byteOffset" : 494588
        }
    ],
    "samplers" : [
        {
            "magFilter" : 9729,
            "minFilter" : 9987
        }
    ],
    "buffers" : [
        {
            "byteLength" : 497020,
            "uri" : "data:application/octet-stream;base64,"
        }
    ]
}
